Coordinates
version=1
nRows=43
nColumns=12
inDegrees=yes

Units are S.I. units (second, meters, Newtons, ...)
Angles are in degrees

endheader
time	SC_y	SC_z	SC_x	AC_y	AC_z	AC_x	GH_y	GH_z	GH_yy	EL_x	PS_y
       0.0              -22.26           6.83          33.13          43.73         -5.073         -10.59          14.78           62.2          115.4          50.78          62.78
   0.02489              -22.26          6.831          33.13          43.73         -5.074         -10.59          14.78          62.19          115.3          50.79          62.79
   0.04977              -22.26          6.832          33.14          43.74         -5.075         -10.59          14.77          62.18          115.3           50.8          62.79
   0.07466              -22.27          6.833          33.15          43.74         -5.076         -10.59          14.77          62.17          115.2          50.81          62.79
   0.09954              -22.27          6.834          33.15          43.74         -5.077         -10.59          14.77          62.17          115.2          50.82          62.79
    0.1244              -22.27          6.836          33.16          43.74         -5.079         -10.59          14.77          62.15          115.1          50.83          62.79
    0.1493              -22.28          6.837          33.17          43.75          -5.08         -10.59          14.77          62.14          115.0          50.85          62.79
    0.1742              -22.28          6.839          33.18          43.75         -5.081         -10.59          14.76          62.13          115.0          50.86          62.79
    0.1991              -22.28           6.84          33.19          43.75         -5.083         -10.59          14.76          62.12          114.9          50.87          62.79
     0.224              -22.29          6.842           33.2          43.76         -5.085          -10.6          14.76           62.1          114.8          50.89           62.8
    0.2489              -22.29          6.844          33.21          43.76         -5.086          -10.6          14.76          62.09          114.8          50.91           62.8
    0.2737               -22.3          6.846          33.23          43.76         -5.088          -10.6          14.75          62.07          114.7          50.93           62.8
    0.2986               -22.3          6.848          33.24          43.77          -5.09          -10.6          14.75          62.06          114.6          50.95           62.8
    0.3235              -22.31          6.851          33.25          43.77         -5.093          -10.6          14.75          62.04          114.5          50.97           62.8
    0.3484              -22.32          6.853          33.27          43.78         -5.095          -10.6          14.74          62.02          114.4          50.99          62.81
    0.3733              -22.32          6.856          33.29          43.78         -5.098         -10.61          14.74           62.0          114.3          51.02          62.81
    0.3982              -22.33          6.859          33.31          43.79         -5.101         -10.61          14.73          61.97          114.2          51.04          62.81
    0.4231              -22.34          6.862          33.33           43.8         -5.104         -10.61          14.73          61.95          114.0          51.07          62.82
    0.4479              -22.35          6.866          33.35           43.8         -5.107         -10.61          14.72          61.92          113.9          51.11          62.82
    0.4728              -22.36           6.87          33.37          43.81         -5.111         -10.62          14.72          61.89          113.7          51.14          62.82
    0.4977              -22.37          6.874           33.4          43.82         -5.115         -10.62          14.71          61.85          113.5          51.18          62.83
    0.5226              -22.38          6.879          33.43          43.83          -5.12         -10.63           14.7          61.82          113.3          51.23          62.83
    0.5475              -22.39          6.884          33.46          43.84         -5.125         -10.63          14.69          61.77          113.1          51.27          62.84
    0.5724              -22.41           6.89           33.5          43.85          -5.13         -10.63          14.68          61.73          112.9          51.33          62.84
    0.5973              -22.42          6.897          33.54          43.86         -5.136         -10.64          14.67          61.68          112.6          51.39          62.85
    0.6222              -22.44          6.904          33.58          43.88         -5.143         -10.65          14.66          61.62          112.3          51.45          62.86
     0.647              -22.46          6.912          33.63          43.89         -5.151         -10.65          14.65          61.56          112.0          51.53          62.86
    0.6719              -22.48          6.921          33.69          43.91         -5.159         -10.66          14.64          61.49          111.6          51.61          62.87
    0.6968              -22.51          6.932          33.75          43.93         -5.169         -10.67          14.62          61.41          111.2           51.7          62.88
    0.7217              -22.54          6.944          33.82          43.95          -5.18         -10.68           14.6          61.31          110.7          51.81          62.89
    0.7466              -22.57          6.957           33.9          43.98         -5.193         -10.69          14.58          61.21          110.2          51.93          62.91
    0.7715              -22.61          6.972           34.0          44.01         -5.208          -10.7          14.56          61.09          109.6          52.07          62.92
    0.7964              -22.65           6.99           34.1          44.04         -5.224         -10.71          14.53          60.95          108.8          52.23          62.94
    0.8212               -22.7          7.011          34.23          44.09         -5.244         -10.73           14.5          60.79          108.0          52.42          62.96
    0.8461              -22.76          7.035          34.38          44.13         -5.267         -10.75          14.46           60.6          107.0          52.64          62.98
     0.871              -22.83          7.064          34.55          44.19         -5.294         -10.77          14.42          60.38          105.9           52.9          63.01
    0.8959              -22.91          7.098          34.76          44.25         -5.326          -10.8          14.37          60.11          104.5          53.21          63.04
    0.9208              -23.01          7.138          35.01          44.33         -5.364         -10.83          14.31           59.8          102.9          53.58          63.08
    0.9457              -23.13          7.188          35.31          44.43          -5.41         -10.87          14.23          59.41          100.9          54.02          63.13
    0.9706              -23.27          7.248          35.67          44.55         -5.467         -10.92          14.14          58.95          98.44          54.57          63.18
    0.9954              -23.45          7.322          36.12          44.69         -5.537         -10.98          14.03          58.37          95.44          55.24          63.25
      1.02              -23.68          7.415          36.69          44.87         -5.624         -11.06          13.89          57.65          91.69          56.08          63.34
     1.045              -23.96          7.531           37.4           45.1         -5.734         -11.15          13.71          56.74          86.98          57.13          63.45
